# xmcd CD database file
#
# Track frame offsets:
#	150
#	14934
#	40378
#	57592
#	78690
#	90132
#	100627
#	115050
#	130230
#	148191
#	162018
#	188540
#
# Disc length: 2685 seconds
#
# Revision: 3
# Processed by: cddbd v1.5.1PL0 Copyright (c) Steve Scherf et al.
# Submitted via: CDex 1.51
#
DISCID=9c0a7b0c
DTITLE=Joan Manuel Serrat - 24 Páginas Inolvidables Disco 1
DYEAR=1993
DGENRE=Ballad
TTITLE0=Cantares
TTITLE1=Mi Niñez
TTITLE2=La Mujer Que Yo Quiero
TTITLE3=Decir Amigo
TTITLE4=He Andado Muchos Caminos
TTITLE5=La Saeta
TTITLE6=La Paloma
TTITLE7=El Titiritero
TTITLE8=Balada De Otoño
TTITLE9=Señora
TTITLE10=Elegía
TTITLE11=Para La Libertad
EXTD=YEAR: 1993
EXTT0=
EXTT1=
EXTT2=
EXTT3=
EXTT4=
EXTT5=
EXTT6=
EXTT7=
EXTT8=
EXTT9=
EXTT10=
EXTT11=
PLAYORDER=
